<svg width="48" height="48" viewBox="0 0 48 48" fill="none" xmlns="http://www.w3.org/2000/svg">
<path d="M38 16V39.2C38 40.473 37.4943 41.6939 36.5941 42.5941C35.6939 43.4943 34.473 44 33.2 44H14.8C13.527 44 12.3061 43.4943 11.4059 42.5941C10.5057 41.6939 10 40.473 10 39.2V16M32 10V6.4C32 5.08 30.92 4 29.6 4H18.4C17.08 4 16 5.08 16 6.4V10M32 10H16M32 10H42M16 10H6M24 22V34M30 22V34M18 22V34" stroke="#FFCD29" stroke-width="3" stroke-miterlimit="10" stroke-linecap="round" stroke-linejoin="round"/>
</svg>
