<svg width="48" height="48" viewBox="0 0 48 48" fill="none" xmlns="http://www.w3.org/2000/svg">
<path fill-rule="evenodd" clip-rule="evenodd" d="M42.91 10.8321C43.1001 11.1206 43.1847 11.4657 43.1497 11.8093C43.1148 12.1529 42.9623 12.4739 42.718 12.7181L24.332 31.1021C24.1439 31.2901 23.9093 31.4247 23.652 31.4921L15.994 33.4921C15.7409 33.5582 15.4749 33.5568 15.2224 33.4883C14.97 33.4197 14.7398 33.2863 14.5548 33.1014C14.3698 32.9164 14.2364 32.6862 14.1679 32.4338C14.0993 32.1813 14.098 31.9153 14.164 31.6621L16.164 24.0061C16.2238 23.7769 16.3338 23.5637 16.486 23.3821L34.94 4.94015C35.2213 4.65924 35.6025 4.50146 36 4.50146C36.3975 4.50146 36.7788 4.65924 37.06 4.94015L42.718 10.5961C42.7879 10.6698 42.8521 10.7487 42.91 10.8321ZM39.536 11.6561L36 8.12214L18.964 25.1581L17.714 29.9441L22.5 28.6941L39.536 11.6561Z" fill="#FFCD29"/>
<path d="M39.282 34.3202C39.8287 29.6481 40.0032 24.9399 39.804 20.2402C39.7993 20.1294 39.8177 20.0189 39.858 19.9156C39.8983 19.8123 39.9596 19.7185 40.038 19.6402L42.006 17.6722C42.0598 17.6181 42.1281 17.5807 42.2026 17.5644C42.2771 17.5482 42.3547 17.5539 42.4261 17.5807C42.4975 17.6075 42.5596 17.6544 42.605 17.7157C42.6504 17.7769 42.6772 17.85 42.682 17.9262C43.0514 23.5086 42.9109 29.1132 42.262 34.6702C41.79 38.7142 38.542 41.8842 34.516 42.3342C27.5267 43.1077 20.4734 43.1077 13.484 42.3342C9.46003 41.8842 6.21003 38.7142 5.73803 34.6702C4.91024 27.5809 4.91024 20.4194 5.73803 13.3302C6.21003 9.28615 9.45803 6.11615 13.484 5.66615C18.7889 5.08025 24.1334 4.93776 29.462 5.24015C29.5383 5.24563 29.6114 5.27284 29.6726 5.31858C29.7339 5.36431 29.7808 5.42664 29.8077 5.49819C29.8347 5.56975 29.8405 5.64752 29.8246 5.7223C29.8087 5.79709 29.7717 5.86575 29.718 5.92015L27.732 7.90415C27.6544 7.98185 27.5616 8.04272 27.4594 8.08298C27.3572 8.12323 27.2478 8.14202 27.138 8.13815C22.6915 7.98585 18.2399 8.1563 13.818 8.64815C12.5259 8.79117 11.3197 9.3656 10.3943 10.2787C9.46894 11.1917 8.87837 12.3901 8.71803 13.6802C7.91574 20.5368 7.91574 27.4635 8.71803 34.3202C8.87837 35.6102 9.46894 36.8086 10.3943 37.7216C11.3197 38.6347 12.5259 39.2091 13.818 39.3522C20.528 40.1022 27.472 40.1022 34.184 39.3522C35.4761 39.2091 36.6823 38.6347 37.6077 37.7216C38.5331 36.8086 39.1217 35.6102 39.282 34.3202Z" fill="#FFCD29"/>
</svg>
